<svg width="82" height="82" viewBox="0 0 82 82" fill="none" xmlns="http://www.w3.org/2000/svg">
<g clip-path="url(#clip0_107_2)">
<path fill-rule="evenodd" clip-rule="evenodd" d="M21.5253 1.59006C26.85 0.40672 33.3096 0 41 0C48.6904 0 55.1499 0.40672 60.4746 1.59006C65.846 2.78378 70.3101 4.8216 73.7442 8.25568C77.1784 11.6898 79.2161 16.1541 80.41 21.5253C81.5933 26.85 82 33.3096 82 41C82 48.6904 81.5933 55.1499 80.41 60.4746C79.2161 65.846 77.1784 70.3101 73.7442 73.7442C70.3101 77.1784 65.846 79.2161 60.4746 80.41C55.1499 81.5933 48.6904 82 41 82C33.3096 82 26.85 81.5933 21.5253 80.41C16.1541 79.2161 11.6898 77.1784 8.25568 73.7442C4.8216 70.3101 2.78378 65.846 1.59006 60.4746C0.40672 55.1499 0 48.6904 0 41C0 33.3096 0.40672 26.85 1.59006 21.5253C2.78378 16.1541 4.8216 11.6898 8.25568 8.25568C11.6898 4.8216 16.1541 2.78378 21.5253 1.59006Z" fill="#FF1C3A"/>
<g clip-path="url(#clip1_107_2)">
<path fill-rule="evenodd" clip-rule="evenodd" d="M53.7951 43.0696L50.6634 56.5996H47.787H39.5642H36.6812H28.4586H25.6279L28.7595 43.0696H20.5374H16.9672L14.5 53.7302H18.0696L17.4057 56.5996L15.5461 64.6338H23.7682H26.5989H34.8216H37.7043H45.9273H48.8041H57.0262L58.8858 56.5996L62.0175 43.0696H53.7951Z" fill="white"/>
<path fill-rule="evenodd" clip-rule="evenodd" d="M59.7779 17.2222L54.4621 40.1893H62.6842L68 17.2234V17.2222H59.7779Z" fill="white"/>
<path fill-rule="evenodd" clip-rule="evenodd" d="M26.52 17.2222L21.2042 40.1893H29.4263L34.7421 17.2222H26.52Z" fill="white"/>
<path fill-rule="evenodd" clip-rule="evenodd" d="M43.0882 28.9199H34.8653L32.2574 40.1887L31.5904 43.0694L36.1438 43.074L31.0565 45.3764L29.1215 53.7361H37.3442L39.8131 43.0694L40.4798 40.1887L43.0882 28.9199Z" fill="white"/>
<path fill-rule="evenodd" clip-rule="evenodd" d="M45.9766 28.9199L43.3684 40.1887L42.7017 43.0694L47.2551 43.074L42.1678 45.3764L40.2325 53.7361H48.4555L50.9242 43.0694L51.5911 40.1887L54.1995 28.9199H45.9766Z" fill="white"/>
</g>
</g>
<defs>
<clipPath id="clip0_107_2">
<rect width="82" height="82" fill="white"/>
</clipPath>
<clipPath id="clip1_107_2">
<rect width="53.5" height="47.5556" fill="white" transform="translate(14.5 17.2222)"/>
</clipPath>
</defs>
</svg>
